<?xml version="1.0" standalone="no"?>
<!DOCTYPE svg PUBLIC "-//W3C//DTD SVG 20010904//EN"
 "http://www.w3.org/TR/2001/REC-SVG-20010904/DTD/svg10.dtd">
<svg version="1.0" xmlns="http://www.w3.org/2000/svg"
 width="300pt" height="300pt" viewBox="0 0 600.000000 600.000000"
 preserveAspectRatio="xMidYMid meet">
<metadata>
Created by potrace 1.16, written by Peter Selinger 2001-2019
</metadata>
<g transform="translate(0.000000,600.000000) scale(0.100000,-0.100000)"
fill="#000000" stroke="none">
<path d="M4041 4264 c-28 -48 -35 -53 -49 -42 -11 9 -14 9 -9 1 8 -12 -61
-152 -74 -153 -4 0 -16 8 -27 18 l-21 17 39 65 c40 67 46 80 33 80 -5 0 -26
-31 -47 -70 l-40 -70 -84 46 c-46 25 -87 42 -92 38 -12 -13 -23 -55 -13 -52 4
2 18 -4 29 -12 l22 -15 -42 -71 -41 -71 -29 18 c-28 17 -30 17 -42 1 -23 -30
-15 -41 61 -83 41 -22 77 -44 79 -48 3 -4 -15 -42 -40 -84 -52 -90 -52 -89 33
-165 l57 -52 -29 -55 c-49 -91 -47 -89 -92 -70 -56 24 -177 46 -163 30 5 -6 6
-15 2 -19 -4 -4 -2 -7 3 -6 15 3 29 1 44 -9 11 -7 7 -22 -24 -77 -20 -38 -38
-70 -40 -72 -2 -2 -17 4 -34 13 -51 26 -38 -3 30 -67 33 -32 75 -66 92 -75 18
-9 37 -22 42 -28 6 -7 36 -15 68 -19 82 -9 75 12 -23 68 l-79 46 41 72 c22 40
41 74 43 75 1 2 37 -17 81 -42 43 -25 82 -45 86 -45 4 0 19 24 32 53 34 72 85
149 94 143 4 -2 8 9 9 24 2 26 -6 33 -78 75 l-80 46 32 57 c53 92 53 92 71 86
10 -3 18 -1 18 5 0 6 -3 10 -7 9 -5 -1 -41 31 -81 71 l-73 73 37 66 c20 37 37
68 38 69 1 1 33 -9 71 -23 39 -13 85 -24 103 -24 19 0 31 -4 27 -10 -4 -6 1
-7 11 -3 15 5 15 7 0 15 -14 8 -11 18 25 83 40 73 40 74 19 85 -21 11 -21 11
-2 43 22 36 38 97 25 97 -5 0 -23 -25 -42 -56z"/>
<path d="M2889 4233 c-5 -15 -7 -39 -3 -53 4 -14 7 -53 5 -87 l-3 -63 34 0 33
0 -3 45 c-4 40 -2 45 17 45 18 0 21 -7 23 -42 l1 -43 4 38 c3 21 -1 45 -7 53
-7 7 -9 25 -6 38 5 22 3 24 -18 20 -16 -3 -26 2 -30 13 -9 21 13 34 36 22 21
-11 22 -6 8 22 -8 13 -21 19 -46 19 -28 0 -36 -5 -45 -27z"/>
<path d="M1928 4031 c-27 -24 -33 -36 -33 -69 0 -42 30 -86 66 -97 24 -8 48
-67 30 -73 -25 -8 -51 -42 -51 -65 0 -17 259 -560 275 -576 3 -2 18 2 34 9 17
6 34 12 38 12 4 0 16 7 26 15 9 9 20 13 24 9 4 -4 -14 -27 -40 -52 -26 -24
-47 -52 -47 -60 0 -9 18 6 39 34 42 52 112 115 120 106 3 -2 -26 -37 -65 -77
-38 -40 -23 -28 32 27 72 70 101 105 100 120 l-1 22 -48 -18 c-58 -22 -77 -23
-51 -2 18 15 18 15 -3 9 -31 -9 -29 1 5 20 25 15 16 14 -25 -2 -16 -6 -17 -5
-3 12 14 17 13 18 -2 12 -31 -11 -20 9 15 27 17 9 23 14 12 10 -11 -3 -29 -9
-40 -11 l-20 -5 20 15 c20 16 20 16 -2 10 -31 -7 -29 3 5 22 15 9 18 13 7 10
-11 -4 -27 -9 -35 -12 -8 -3 -4 5 10 16 l25 21 -28 -10 c-16 -5 -29 -10 -31
-10 -1 0 -2 9 -3 20 -1 11 2 20 6 20 4 0 16 7 27 16 18 15 18 15 -3 5 -12 -6
-30 -11 -40 -11 -14 1 -13 4 7 15 l25 15 -30 -5 -30 -6 28 16 c34 20 35 28 1
14 -37 -13 -42 -4 -7 15 15 8 24 15 20 16 -5 0 -17 -5 -29 -11 -11 -6 -22 -8
-25 -6 -3 3 8 12 24 21 32 17 26 21 -11 6 -32 -12 -34 3 -3 18 20 11 20 11 -8
6 l-30 -5 28 16 c30 18 38 31 8 15 -31 -16 -49 -12 -26 6 19 16 19 16 -5 10
-24 -7 -24 -6 -6 8 11 9 24 16 30 16 5 0 7 2 4 5 -3 3 -17 1 -31 -4 -20 -8
-27 -7 -32 7 -3 9 -2 18 3 20 5 1 18 10 28 18 18 14 18 15 -3 5 -33 -17 -51
-13 -28 5 19 16 19 16 -5 10 -24 -7 -24 -6 -6 8 11 9 24 16 30 16 5 0 7 3 4 6
-4 3 -16 0 -28 -6 -11 -6 -26 -9 -33 -7 -7 2 2 11 18 20 17 9 26 16 22 17 -5
0 -17 -5 -29 -11 -11 -6 -22 -8 -25 -6 -3 3 8 13 24 21 l28 16 -30 -6 c-26 -5
-28 -4 -13 8 9 7 31 21 48 30 17 10 28 22 25 28 -8 13 -41 13 -64 1 -33 -18
-67 31 -56 80 14 61 -35 119 -99 119 -14 0 -40 -13 -58 -29z m119 -13 c33 -31
32 -90 -3 -117 -56 -44 -134 -8 -134 60 0 70 85 106 137 57z"/>
<path d="M1328 3643 c-98 -89 -211 -227 -238 -293 -11 -27 -11 -32 6 -45 11
-8 21 -14 24 -14 13 1 235 274 236 291 1 11 16 35 35 54 45 46 25 43 -25 -3
-38 -36 -34 -23 8 25 32 36 0 25 -46 -15z"/>
<path d="M4712 3645 c-24 -10 -39 -28 -54 -62 -11 -26 -27 -55 -34 -64 -13
-14 -12 -18 1 -29 14 -12 11 -17 -24 -50 l-40 -37 72 -41 c39 -23 74 -39 79
-36 9 6 0 53 -14 71 -12 15 28 43 62 43 40 0 88 35 98 72 25 93 -61 171 -146
133z m94 -23 c51 -41 57 -91 15 -133 -59 -59 -151 -23 -151 60 0 71 84 116
136 73z"/>
<path d="M4707 3603 c-46 -52 -14 -127 54 -125 94 3 90 142 -4 142 -20 0 -41
-7 -50 -17z"/>
<path d="M1423 3616 c-10 -13 -80 -96 -155 -184 -106 -124 -134 -163 -124
-171 10 -8 49 32 167 170 85 99 155 184 157 188 7 21 -29 18 -45 -3z"/>
<path d="M1361 3384 l-150 -175 37 -33 c20 -17 63 -54 95 -80 55 -47 58 -48
77 -31 10 9 31 44 46 76 15 33 30 59 32 59 10 0 193 -153 296 -249 61 -56 115
-101 120 -101 21 1 -282 279 -373 342 -23 16 -23 16 -3 36 11 11 22 26 25 33
3 10 21 -2 58 -37 73 -68 211 -183 339 -278 58 -44 110 -83 117 -88 6 -5 14
-5 17 0 3 5 -52 52 -122 103 -147 109 -241 186 -331 272 -63 61 -64 61 -41 77
43 29 110 93 110 103 0 6 -21 -9 -47 -33 -40 -39 -43 -41 -22 -11 47 65 51 75
10 31 -50 -55 -62 -49 -15 9 46 59 43 67 -6 11 -47 -53 -54 -38 -8 17 l32 38
-40 -37 c-55 -52 -63 -48 -18 10 l37 47 -42 -42 c-47 -47 -54 -51 -44 -26 5
13 2 15 -11 10 -15 -6 -14 -3 4 23 11 16 25 32 30 35 6 4 10 12 10 18 -1 7
-16 -6 -35 -27 -47 -53 -54 -41 -8 15 l37 44 -49 -45 c-47 -44 -47 -40 4 31
20 29 17 28 -19 -9 -50 -51 -65 -50 -20 2 18 20 30 36 27 36 -3 0 -73 -79
-156 -176z m154 -29 c39 -38 30 -86 -22 -113 -40 -22 -103 22 -103 71 0 26 45
67 75 67 14 0 37 -11 50 -25z"/>
<path d="M2872 3367 c-2 -44 -4 -48 -32 -53 -23 -5 -30 -12 -30 -30 0 -13 -4
-24 -10 -24 -6 0 -10 -27 -10 -60 0 -56 2 -60 26 -66 14 -4 96 -4 181 0 183 7
186 8 177 90 -4 31 -11 56 -15 56 -5 0 -9 11 -9 24 0 17 -6 25 -17 25 -10 -1
-28 2 -40 6 -14 5 -23 3 -23 -4 0 -5 6 -8 14 -5 15 6 32 -29 22 -45 -3 -5 3
-7 14 -4 18 5 20 0 20 -57 0 -51 -3 -61 -15 -56 -8 3 -15 1 -15 -4 0 -6 -13
-10 -29 -10 -23 0 -31 5 -34 23 l-4 22 -2 -22 c0 -13 -8 -23 -16 -23 -12 0
-15 13 -15 60 0 33 4 60 10 60 5 0 9 11 8 25 -2 23 -6 25 -53 25 -83 0 -93 6
-98 54 l-4 41 -1 -48z"/>
<path d="M1560 3225 c-10 -13 -8 -19 16 -38 50 -38 155 -130 264 -230 90 -83
110 -96 140 -97 19 0 50 -9 68 -20 67 -41 24 -1 -93 88 -66 49 -164 128 -218
173 -178 151 -163 141 -177 124z"/>
<path d="M3963 3111 c-82 -71 -90 -81 -79 -97 12 -16 21 -11 104 59 50 42 94
77 99 76 4 0 19 -14 32 -30 l24 -30 -49 -46 -49 -45 51 41 c55 44 64 48 64 27
0 -8 -47 -54 -104 -102 l-105 -87 15 -28 14 -29 33 20 c35 22 100 26 142 10
24 -9 33 -6 81 32 29 24 51 49 49 56 -2 6 2 12 10 12 40 0 -6 90 -60 120 -22
12 -45 20 -52 18 -6 -1 -34 21 -61 50 -28 28 -54 52 -59 52 -4 -1 -49 -36
-100 -79z"/>
<path d="M2527 3069 c-120 -10 -254 -36 -284 -55 -29 -18 -74 -96 -110 -191
-25 -66 -30 -73 -55 -73 -16 0 -28 5 -28 10 0 26 -41 50 -86 50 -37 0 -51 -5
-75 -30 -37 -37 -37 -78 1 -97 36 -18 121 -16 149 3 30 21 45 7 32 -30 -13
-33 -16 -34 -126 -45 -78 -8 -92 -12 -112 -35 -31 -36 -52 -114 -60 -217 l-6
-86 60 -16 c46 -13 103 -17 256 -17 108 0 197 3 198 8 4 45 10 67 19 70 8 3 8
8 0 17 -7 8 -9 22 -6 33 6 18 33 18 735 18 l730 1 6 -74 7 -73 259 0 259 0 0
28 c-1 79 -22 219 -41 262 -24 56 -62 80 -131 81 -23 0 -61 3 -83 7 -33 6 -41
12 -49 40 -12 43 -3 49 37 27 47 -25 133 -17 159 14 15 20 16 27 5 54 -16 38
-48 57 -100 57 -30 0 -45 -7 -67 -30 -34 -36 -66 -39 -75 -7 -4 12 -29 68 -57
125 -45 95 -52 105 -91 122 -102 45 -307 60 -787 58 -212 0 -429 -4 -483 -9z
m900 -59 c203 -12 335 -30 380 -53 20 -11 42 -39 65 -84 33 -62 88 -211 88
-235 0 -15 -120 -4 -129 11 -19 30 -93 34 -736 37 -682 3 -841 -3 -863 -33 -9
-12 -31 -18 -76 -21 l-65 -4 13 43 c28 92 78 208 105 246 36 50 94 68 271 83
236 20 682 25 947 10z m-559 -377 c3 -23 3 -23 -147 -23 -138 0 -151 2 -161
19 -5 11 -10 22 -10 26 0 3 71 4 158 3 154 -3 157 -3 160 -25z m642 21 c0 -3
-5 -14 -10 -25 -10 -18 -23 -19 -165 -19 -88 0 -155 4 -155 9 0 39 8 41 171
41 87 0 159 -3 159 -6z m-616 -70 c3 -9 6 -20 6 -25 0 -5 -67 -9 -154 -9 -158
0 -166 2 -166 41 0 5 67 9 154 9 131 0 155 -2 160 -16z m586 7 c0 -39 -8 -41
-166 -41 -87 0 -154 4 -154 9 0 39 8 41 166 41 87 0 154 -4 154 -9z m-1511
-149 c37 -22 47 -34 49 -59 4 -42 -21 -89 -61 -113 -47 -29 -81 -25 -125 14
-35 33 -37 37 -37 99 0 86 13 101 79 93 28 -3 69 -18 95 -34z m2269 29 c8 -4
18 -27 23 -50 19 -85 -24 -158 -98 -168 -34 -4 -45 -1 -75 26 -42 36 -63 81
-54 115 12 47 162 104 204 77z m-2013 -37 c48 -25 60 -43 51 -79 -9 -36 -65
-92 -100 -101 -36 -9 -89 16 -112 52 -22 32 -24 115 -4 139 19 23 112 16 165
-11z m1528 -1 c2 -13 1 -25 -3 -28 -4 -2 -169 0 -366 5 -197 5 -429 7 -514 5
-85 -3 -248 -7 -362 -10 l-208 -5 0 23 c0 13 2 26 5 28 2 3 328 5 724 5 l719
0 5 -23z m241 11 c20 -20 21 -86 1 -128 -9 -18 -28 -40 -44 -49 -48 -28 -79
-22 -127 27 -35 35 -44 50 -44 79 0 32 4 37 52 61 61 30 137 35 162 10z"/>
<path d="M1481 2376 c87 -23 159 -94 184 -181 9 -30 15 -65 13 -77 -3 -17 -9
-7 -21 33 -25 85 -65 132 -144 171 -64 31 -74 33 -173 33 -80 0 -117 -5 -155
-19 -27 -11 -62 -19 -77 -18 -17 2 -28 -3 -28 -11 0 -8 63 -30 179 -61 l179
-49 5 -41 c11 -76 -24 -186 -71 -229 -20 -18 -25 -17 -192 28 -175 47 -219 51
-186 17 9 -9 34 -42 56 -74 48 -68 140 -139 217 -168 135 -50 223 -34 333 61
83 71 174 116 262 130 39 6 508 9 1238 7 1309 -3 1219 2 1325 -72 103 -72 134
-87 196 -97 76 -12 170 1 239 34 25 11 52 21 60 21 8 1 15 8 15 16 0 10 -42
26 -149 55 -143 38 -150 41 -157 69 -14 53 12 147 53 192 l19 22 151 -40 c91
-24 154 -36 160 -30 5 5 -2 22 -19 41 -93 109 -120 133 -186 166 -60 30 -79
35 -141 35 -65 0 -77 -3 -126 -34 -30 -19 -73 -46 -95 -60 -92 -58 -51 -56
-1360 -56 -1293 0 -1253 -1 -1358 51 -23 12 -63 39 -89 60 -55 46 -142 89
-178 88 -17 0 -10 -4 21 -13z m814 -266 c16 -18 17 -25 6 -55 -9 -25 -9 -40
-2 -54 16 -29 13 -41 -9 -41 -13 0 -26 12 -37 35 -9 19 -20 35 -25 35 -4 0 -8
-16 -8 -35 0 -28 -4 -35 -20 -35 -18 0 -20 7 -20 85 l0 85 48 0 c36 0 54 -5
67 -20z m155 0 c0 -17 -7 -20 -40 -20 -22 0 -40 -4 -40 -10 0 -5 14 -10 30
-10 23 0 30 -4 30 -20 0 -16 -7 -20 -30 -20 -16 0 -30 -4 -30 -9 0 -12 25 -21
57 -21 18 0 24 -5 21 -17 -2 -14 -15 -19 -61 -21 l-57 -3 0 86 0 85 60 0 c53
0 60 -2 60 -20z m118 4 c12 -8 22 -23 22 -32 0 -29 -30 -62 -56 -62 -13 0 -25
-6 -25 -12 -1 -7 -2 -20 -3 -28 0 -8 -11 -16 -23 -18 -22 -3 -23 -1 -23 82 l0
86 43 0 c23 0 53 -7 65 -16z m344 -1 c20 -18 24 -53 6 -71 -9 -9 -9 -18 0 -37
17 -36 15 -45 -8 -45 -13 0 -26 12 -37 35 -9 19 -20 35 -25 35 -4 0 -8 -16 -8
-35 0 -28 -4 -35 -20 -35 -18 0 -20 7 -20 85 l0 85 47 0 c29 0 53 -6 65 -17z
m192 1 c27 -27 19 -36 -25 -29 -48 8 -47 -9 0 -18 37 -8 56 -39 41 -67 -15
-29 -47 -42 -81 -35 -29 6 -54 36 -42 49 10 10 43 7 43 -4 0 -5 9 -10 20 -10
33 0 23 16 -20 33 -30 12 -40 21 -40 38 0 50 69 79 104 43z m156 -4 c0 -16 -7
-20 -35 -20 -19 0 -35 -4 -35 -10 0 -5 11 -10 25 -10 18 0 25 -5 25 -20 0 -15
-7 -20 -25 -20 -16 0 -25 -6 -25 -15 0 -10 11 -15 35 -15 29 0 35 -4 35 -20 0
-19 -5 -21 -57 -18 l-58 3 -3 83 -3 82 61 0 c53 0 60 -2 60 -20z m122 8 c24
-20 28 -44 12 -67 -13 -18 -13 -24 0 -49 8 -16 12 -32 9 -36 -16 -16 -41 -3
-58 32 l-19 37 -5 -35 c-5 -26 -11 -35 -26 -35 -18 0 -20 8 -23 83 l-3 82 49
0 c26 0 55 -6 64 -12z m498 -8 c0 -16 -7 -20 -35 -20 -41 0 -47 -17 -7 -22 16
-2 27 -9 27 -18 0 -9 -11 -16 -27 -18 -39 -5 -35 -27 4 -30 38 -3 42 -6 34
-27 -4 -12 -18 -15 -58 -13 l-53 3 -3 83 -3 82 61 0 c53 0 60 -2 60 -20z"/>
<path d="M2612 2340 c-155 -4 -285 -9 -287 -12 -3 -3 153 -8 345 -11 385 -7
1130 3 1015 14 -121 11 -778 17 -1073 9z"/>
<path d="M2593 2271 c-138 -3 -254 -9 -257 -12 -7 -6 825 -19 884 -14 19 2
141 4 270 5 129 1 224 5 210 9 -35 11 -804 19 -1107 12z"/>
</g>
</svg>
